.
..............................Site Info...........................

 -   http://www.scenetime.com  *_*   


Scenetime .Always on time . friendly online private torrent community ..

     We care to share . Join us on  http://www.scenetime.com 

    Be the first to get new release at  http://www.scenetime.com

        Seed back for speed


...................................NFO:.................................................http://i.imgur.com/6YC5F.jpg[img][/img]

[b]Sherlock.Holmes.A.Game.of.Shadows.2011.BRRip.Xvid.AC3-ADTRG[/b]

Sherlock Holmes and his sidekick Dr. Watson join forces to outwit and bring down their fiercest adversary, Professor Moriarty.  

[url]http://www.imdb.com/title/tt1515091/[/url]

Source -  Sherlock Holmes A Game of Shadows 2011 1080p BluRay x264-UNVEiL   Thanks

Complete name                            : Sherlock.Holmes.A.Game.of.Shadows.2011.BRRip.Xvid.AC3-ADTRG.avi
Format                                   : AVI
Format/Info                              : Audio Video Interleave
File size                                : 1.96 GiB
Duration                                 : 2h 8mn
Overall bit rate                         : 2 186 Kbps

Video
ID                                       : 0
Format                                   : MPEG-4 Visual
Codec ID                                 : XVID
Duration                                 : 2h 8mn
Bit rate                                 : 1 795 Kbps
Width                                    : 720 pixels
Height                                   : 304 pixels
Display aspect ratio                     : 2.35:1
Frame rate                               : 23.976 fps
Stream size                              : 1.61 GiB (82%)

Audio
ID                                       : 1
Format                                   : AC-3
Bit rate                                 : 384 Kbps
Channel(s)                               : 6 channels
Channel positions                        : Front: L C R, Side: L R, LFE
Sampling rate                            : 48.0 KHz
Stream size                              : 353 MiB (18%)



Encoder - LiMeY
Good things come in small packages, So feel the wrath of my compression

[img]http://i.imgur.com/gAg0Q.jpg[/img]


[IMG]http://i.imgur.com/2739o.gif?1?8830[/IMG]

Dont fear the Atomic Dragon, Embrace it  :)


Greetz to DragonMaster,cOOkies,Mr Geek,DBratt420,AnimeKing,Cush,NoWoRRiEs Rayne, Mr & Mrs IrNbRu and the rest of the crew

Respect to CM8,Goon,Hope,mSD,InfernO,legend-rg and maybe a few more ;)